<?xml version="1.0" encoding="UTF-8"?>
<svg xmlns="http://www.w3.org/2000/svg" xmlns:xlink="http://www.w3.org/1999/xlink" width="59px" height="50px" viewBox="0 0 59 50" version="1.1">
    <!-- Generator: Sketch 52.6 (67491) - http://www.bohemiancoding.com/sketch -->
    <title>010 - Sale Tag</title>
    <desc>Created with Sketch.</desc>
    <g id="Page-1" stroke="none" stroke-width="1" fill="none" fill-rule="evenodd">
        <g id="010---Sale-Tag">
            <path d="M48,0 L29.99,0 C29.4621969,0.00130466268 28.9559545,0.209546182 28.58,0.58 L14.02,14.77 L0.58,28.4 C0.205741205,28.7791011 -0.00244596426,29.291442 0.00130547033,29.8241457 C0.00505690491,30.3568494 0.220439137,30.8662075 0.6,31.24 L9.77,40.23 L18.76,49.4 C19.1337925,49.7795609 19.6431506,49.9949431 20.1758543,49.9986945 C20.708558,50.002446 21.2208989,49.7942588 21.6,49.42 L35.23,35.98 L49.42,21.42 C49.7904538,21.0440455 49.9986953,20.5378031 50,20.01 L50,2 C49.9967052,0.896798134 49.1032019,0.00329480111 48,0 Z M43,10 C41.3431458,10 40,8.65685425 40,7 C40,5.34314575 41.3431458,4 43,4 C44.6568542,4 46,5.34314575 46,7 C46,8.65685425 44.6568542,10 43,10 Z" id="Shape" fill="#FF5364" fill-rule="nonzero"/>
            <path d="M14.37,34.216 C13.9081073,34.6939278 13.2906691,34.9911209 12.629,35.054 C12.098789,35.1275118 11.5647465,34.9485029 11.1859499,34.5702955 C10.8071534,34.192088 10.6273135,33.6583248 10.7,33.128 C10.8534625,31.7721154 11.923175,30.7019882 13.279,30.548 C13.8080876,30.4868859 14.3368431,30.6650934 14.721,31.034 C15.1133789,31.4129722 15.7370848,31.4075524 16.1228186,31.0218186 C16.5085524,30.6360848 16.5139722,30.0123789 16.135,29.62 C15.339881,28.8357585 14.2374921,28.4452146 13.126,28.554 C10.7863307,28.7838489 8.93531966,30.6352788 8.706,32.975 C8.58910354,34.0871482 8.98064369,35.1926156 9.77148038,35.9832582 C10.5623171,36.7739007 11.6678806,37.1651695 12.78,37.048 C13.9170076,36.9478651 14.9808874,36.4450045 15.78,35.63 C16.5710684,34.6713512 17.9806333,34.5145853 18.963,35.276 C19.7237561,36.2581974 19.5670237,37.6670182 18.609,38.458 C17.8180182,39.4160237 16.4091974,39.5727561 15.427,38.812 C15.0346211,38.4330278 14.4109152,38.4384476 14.0251814,38.8241814 C13.6394476,39.2099152 13.6340278,39.8336211 14.013,40.226 C14.7283438,40.9299328 15.6965301,41.3169191 16.7,41.3 C17.9547191,41.2828783 19.1517581,40.7702724 20.03,39.874 C21.7758005,38.3061371 21.9337016,35.6249417 20.384,33.863 C18.622092,32.3104845 15.9381809,32.4680203 14.37,34.216 Z" id="Path" fill="#FFFFFF"/>
            <path d="M30.021,28.018 L18.706,22.361 C18.3215747,22.1694694 17.8577813,22.2448044 17.5537422,22.5481639 C17.249703,22.8515234 17.1733302,23.315147 17.364,23.7 L23.021,35.014 C23.1915062,35.3542808 23.5403976,35.5682675 23.921,35.566 C24.0758363,35.5663952 24.2286024,35.5304301 24.367,35.461 C24.6044485,35.3425321 24.7850742,35.1345446 24.8691012,34.8828386 C24.9531283,34.6311326 24.9336659,34.3563497 24.815,34.119 L22.78,30.05 L25.06,27.769 L29.13,29.804 C29.6240187,30.0511474 30.2248525,29.8510187 30.472,29.357 C30.7191474,28.8629813 30.5190187,28.2621474 30.025,28.015 L30.021,28.018 Z M21.833,28.167 L20.5,25.491 L23.176,26.829 L21.833,28.167 Z" id="Shape" fill="#FFFFFF" fill-rule="nonzero"/>
            <path d="M35.229,21.841 L31.694,25.377 L23.916,17.6 C23.5258108,17.2089824 22.8925176,17.2083108 22.5015,17.5985 C22.1104824,17.9886892 22.1098108,18.6219824 22.5,19.013 L30.987,27.5 C31.3774999,27.8903819 32.0105001,27.8903819 32.401,27.5 L36.644,23.257 C37.0344653,22.8662585 37.0342414,22.2329653 36.6435,21.8425 C36.2527585,21.4520347 35.6194653,21.4522586 35.229,21.843 L35.229,21.841 Z" id="Path" fill="#FFFFFF"/>
            <path d="M43.008,15.478 C42.6175001,15.0876181 41.9844999,15.0876181 41.594,15.478 L38.059,19.013 L35.23,16.184 L37.352,14.063 C37.7309722,13.6706211 37.7255524,13.0469152 37.3398186,12.6611814 C36.9540848,12.2754476 36.3303789,12.2700278 35.938,12.649 L33.816,14.77 L30.987,11.942 L34.522,8.406 C34.9009722,8.01362111 34.8955524,7.38991522 34.5098186,7.00418142 C34.1240848,6.61844763 33.5003789,6.61302779 33.108,6.992 L28.866,11.235 C28.4756181,11.6254999 28.4756181,12.2585001 28.866,12.649 L33.107,16.89 L37.349,21.131 C37.7394999,21.5213819 38.3725001,21.5213819 38.763,21.131 L43.005,16.889 C43.3942175,16.4996724 43.3955585,15.8689791 43.008,15.478 Z" id="Path" fill="#FFFFFF"/>
            <path d="M43,11 C40.790861,11 39,9.209139 39,7 C39,4.790861 40.790861,3 43,3 C45.209139,3 47,4.790861 47,7 C47,8.06086596 46.5785726,9.07828161 45.8284271,9.82842712 C45.0782816,10.5785726 44.060866,11 43,11 Z M43,5 C41.8954305,5 41,5.8954305 41,7 C41,8.1045695 41.8954305,9 43,9 C44.1045695,9 45,8.1045695 45,7 C45,5.8954305 44.1045695,5 43,5 Z" id="Shape" fill="#BDC3C7" fill-rule="nonzero"/>
            <path d="M43,11 C40.790861,11 39,9.209139 39,7 C39,4.790861 40.790861,3 43,3 C45.209139,3 47,4.790861 47,7 C47,8.06086596 46.5785726,9.07828161 45.8284271,9.82842712 C45.0782816,10.5785726 44.060866,11 43,11 Z M43,5 C41.8954305,5 41,5.8954305 41,7 C41,8.1045695 41.8954305,9 43,9 C44.1045695,9 45,8.1045695 45,7 C45,5.8954305 44.1045695,5 43,5 Z" id="Shape" fill="#BDC3C7" fill-rule="nonzero"/>
            <path d="M59,8.5 C59,11.07 55.56,13 51,13 C50.66,13 50.32,12.99 50,12.97 C49.9707516,12.9617524 49.9403454,12.9583739 49.91,12.96 C47.7026979,12.8806943 45.5631922,12.1767726 43.74,10.93 C43.4871699,10.7299601 43.2648346,10.4941499 43.08,10.23 C43.0239985,10.15942 42.9769725,10.0821629 42.94,10 L42.93,10 C42.93,9.99 42.92,9.98 42.92,9.97 C42.7237698,9.65649109 42.5944012,9.30583416 42.54,8.94 C42.5113712,8.79512782 42.497965,8.64765979 42.5,8.5 C42.5815815,7.26262973 43.2910223,6.15318495 44.38,5.56 C44.7746153,5.93521047 44.9986202,6.45547979 45,7 C45.0014897,7.25436401 44.9504229,7.50629395 44.85,7.74 C44.7088821,7.89167069 44.603025,8.07265233 44.54,8.27 C44.5122229,8.34344211 44.4986489,8.42149212 44.5,8.5 C44.5036651,8.69573957 44.5702889,8.88509143 44.69,9.04 C44.7,9.05 44.7,9.06 44.71,9.07 C44.7661019,9.15828801 44.8371657,9.23611981 44.92,9.3 C45.176865,9.53421665 45.4665962,9.72961677 45.78,9.88 C47.1051991,10.5035259 48.5378065,10.86677 50,10.95 C50.0223745,10.9582028 50.0462237,10.9616098 50.07,10.96 C50.38,10.99 50.69,11 51,11 C54.72,11 57,9.54 57,8.5 C57,7.46 54.72,6 51,6 C50.696185,5.99791174 50.39246,6.01126228 50.09,6.04 L50,6.04 L50,4.04 C50.32,4.01 50.66,4 51,4 C55.56,4 59,5.93 59,8.5 Z" id="Path" fill="#A59078"/>
        </g>
    </g>
</svg>
