<?xml version="1.0" encoding="UTF-8" standalone="no"?> <svg width="64" height="64" viewBox="0 0 64 64" fill="none" xmlns="http://www.w3.org/2000/svg">
<path d="M59.4001 53.82L53.5101 24.37C53.2395 23.0092 52.5058 21.7843 51.4337 20.9036C50.3616 20.023 49.0175 19.5411 47.6301 19.54H45.0001V16C45.0001 12.5522 43.6304 9.24558 41.1925 6.80761C38.7545 4.36964 35.4479 3 32.0001 3C28.5523 3 25.2457 4.36964 22.8077 6.80761C20.3697 9.24558 19.0001 12.5522 19.0001 16V19.54H16.3701C14.9827 19.5411 13.6386 20.023 12.5665 20.9036C11.4944 21.7843 10.7606 23.0092 10.4901 24.37L4.60009 53.82C4.4255 54.6904 4.44623 55.5887 4.6608 56.4502C4.87537 57.3116 5.27842 58.1147 5.8409 58.8015C6.40337 59.4884 7.11125 60.0418 7.91349 60.422C8.71573 60.8022 9.59233 60.9996 10.4801 61H53.4801C54.3678 60.9996 55.2445 60.8022 56.0467 60.422C56.8489 60.0418 57.5568 59.4884 58.1193 58.8015C58.6818 58.1147 59.0848 57.3116 59.2994 56.4502C59.5139 55.5887 59.5347 54.6904 59.3601 53.82H59.4001ZM21.0001 16C21.0001 13.0826 22.159 10.2847 24.2219 8.22183C26.2848 6.15893 29.0827 5 32.0001 5C34.9175 5 37.7154 6.15893 39.7783 8.22183C41.8412 10.2847 43.0001 13.0826 43.0001 16V19.54H21.0001V16ZM56.6101 57.54C56.2349 57.9965 55.7631 58.3642 55.2289 58.6166C54.6946 58.8691 54.111 59 53.5201 59H10.5201C9.92893 58.9995 9.34524 58.868 8.81099 58.615C8.27674 58.3619 7.80522 57.9936 7.43036 57.5365C7.05549 57.0794 6.78661 56.5449 6.64305 55.9714C6.49948 55.398 6.48481 54.7998 6.60009 54.22L12.4901 24.76C12.6704 23.8528 13.1596 23.0362 13.8743 22.4491C14.5891 21.862 15.4852 21.5407 16.4101 21.54H19.0001V27.25C19.0001 27.5152 19.1054 27.7696 19.293 27.9571C19.4805 28.1446 19.7349 28.25 20.0001 28.25C20.2653 28.25 20.5197 28.1446 20.7072 27.9571C20.8947 27.7696 21.0001 27.5152 21.0001 27.25V21.54H43.0001V27.25C43.0001 27.5152 43.1054 27.7696 43.293 27.9571C43.4805 28.1446 43.7349 28.25 44.0001 28.25C44.2653 28.25 44.5197 28.1446 44.7072 27.9571C44.8947 27.7696 45.0001 27.5152 45.0001 27.25V21.54H47.6301C48.555 21.5407 49.4511 21.862 50.1658 22.4491C50.8806 23.0362 51.3697 23.8528 51.5501 24.76L57.4401 54.22C57.5559 54.8003 57.5416 55.3991 57.3981 55.9732C57.2545 56.5474 56.9854 57.0825 56.6101 57.54Z" fill="black"/>
</svg>
